# Blender 4.5.3 LTS
# www.blender.org
mtllib safe.mtl
o Cylinder.002
v 3.398285 1.150257 -1.647003
v 3.698285 1.150257 -1.647003
v 3.398285 1.052712 -1.637396
v 3.698285 1.052712 -1.637396
v 3.398285 0.958915 -1.608943
v 3.698285 0.958915 -1.608943
v 3.398285 0.872472 -1.562738
v 3.698285 0.872472 -1.562738
v 3.398285 0.796703 -1.500556
v 3.698285 0.796703 -1.500556
v 3.398285 0.734522 -1.424788
v 3.698285 0.734522 -1.424788
v 3.398285 0.688317 -1.338345
v 3.698285 0.688317 -1.338345
v 3.398285 0.659864 -1.244548
v 3.698285 0.659864 -1.244548
v 3.398285 0.650257 -1.147003
v 3.698285 0.650257 -1.147003
v 3.398285 0.659864 -1.049458
v 3.698285 0.659864 -1.049458
v 3.398285 0.688317 -0.955661
v 3.698285 0.688317 -0.955661
v 3.398285 0.734522 -0.869218
v 3.698285 0.734522 -0.869218
v 3.398285 0.796703 -0.793450
v 3.698285 0.796703 -0.793450
v 3.398285 0.872472 -0.731268
v 3.698285 0.872472 -0.731268
v 3.398285 0.958915 -0.685063
v 3.698285 0.958915 -0.685063
v 3.398285 1.052712 -0.656610
v 3.698285 1.052712 -0.656610
v 3.398285 1.150257 -0.647003
v 3.698285 1.150257 -0.647003
v 3.398285 1.247802 -0.656610
v 3.698285 1.247802 -0.656610
v 3.398285 1.341599 -0.685063
v 3.698285 1.341599 -0.685063
v 3.398285 1.428042 -0.731268
v 3.698285 1.428042 -0.731268
v 3.398285 1.503810 -0.793450
v 3.698285 1.503810 -0.793450
v 3.398285 1.565992 -0.869218
v 3.698285 1.565992 -0.869218
v 3.398285 1.612196 -0.955661
v 3.698285 1.612196 -0.955661
v 3.398285 1.640649 -1.049458
v 3.698285 1.640649 -1.049458
v 3.398285 1.650257 -1.147003
v 3.698285 1.650257 -1.147003
v 3.398285 1.640649 -1.244548
v 3.698285 1.640649 -1.244548
v 3.398285 1.612196 -1.338345
v 3.698285 1.612196 -1.338345
v 3.398285 1.565992 -1.424788
v 3.698285 1.565992 -1.424788
v 3.398285 1.503810 -1.500556
v 3.698285 1.503810 -1.500556
v 3.398285 1.428042 -1.562738
v 3.698285 1.428042 -1.562738
v 3.398285 1.341599 -1.608943
v 3.698285 1.341599 -1.608943
v 3.398285 1.247802 -1.637396
v 3.698285 1.247802 -1.637396
v 3.050187 1.150257 -2.147003
v 3.050187 0.955166 -2.127788
v 3.050187 0.767573 -2.070882
v 3.050187 0.594686 -1.978472
v 3.050187 0.443150 -1.854110
v 3.050187 0.318787 -1.702573
v 3.050187 0.226377 -1.529686
v 3.050187 0.169471 -1.342093
v 3.050187 0.150257 -1.147003
v 3.050187 0.169471 -0.951913
v 3.050187 0.226377 -0.764319
v 3.050187 0.318787 -0.591433
v 3.050187 0.443150 -0.439896
v 3.050187 0.594686 -0.315533
v 3.050187 0.767573 -0.223123
v 3.050187 0.955166 -0.166218
v 3.050187 1.150257 -0.147003
v 3.050187 1.345347 -0.166218
v 3.050187 1.532940 -0.223123
v 3.050187 1.705827 -0.315533
v 3.050187 1.857363 -0.439896
v 3.050187 1.981726 -0.591433
v 3.050187 2.074136 -0.764319
v 3.050187 2.131042 -0.951913
v 3.050187 2.150257 -1.147003
v 3.050187 2.131042 -1.342093
v 3.050187 2.074136 -1.529686
v 3.050187 1.981726 -1.702573
v 3.050187 1.857363 -1.854110
v 3.050187 1.705827 -1.978472
v 3.050187 1.532940 -2.070882
v 3.050187 1.345347 -2.127788
v 3.650187 1.150257 -1.644584
v 3.500187 1.150257 -2.147003
v 3.650187 1.053184 -1.635023
v 3.500187 0.955166 -2.127788
v 3.650187 0.959841 -1.606708
v 3.500187 0.767573 -2.070882
v 3.650187 0.873816 -1.560726
v 3.500187 0.594687 -1.978472
v 3.650187 0.798414 -1.498846
v 3.500187 0.443150 -1.854110
v 3.650187 0.736534 -1.423444
v 3.500187 0.318787 -1.702573
v 3.650187 0.690552 -1.337419
v 3.500187 0.226377 -1.529686
v 3.650187 0.662237 -1.244076
v 3.500187 0.169472 -1.342093
v 3.650187 0.652676 -1.147003
v 3.500187 0.150257 -1.147003
v 3.650187 0.662237 -1.049930
v 3.500187 0.169472 -0.951913
v 3.650187 0.690552 -0.956587
v 3.500187 0.226377 -0.764319
v 3.650187 0.736534 -0.870562
v 3.500187 0.318787 -0.591433
v 3.650187 0.798414 -0.795160
v 3.500187 0.443150 -0.439896
v 3.650187 0.873816 -0.733280
v 3.500187 0.594687 -0.315533
v 3.650187 0.959841 -0.687298
v 3.500187 0.767573 -0.223123
v 3.650187 1.053184 -0.658983
v 3.500187 0.955166 -0.166218
v 3.650187 1.150257 -0.649422
v 3.500187 1.150257 -0.147003
v 3.650187 1.247330 -0.658983
v 3.500187 1.345347 -0.166218
v 3.650187 1.340673 -0.687298
v 3.500187 1.532940 -0.223123
v 3.650187 1.426698 -0.733280
v 3.500187 1.705827 -0.315533
v 3.650187 1.502100 -0.795160
v 3.500187 1.857363 -0.439896
v 3.650187 1.563980 -0.870562
v 3.500187 1.981726 -0.591433
v 3.650187 1.609961 -0.956587
v 3.500187 2.074136 -0.764319
v 3.650187 1.638277 -1.049930
v 3.500187 2.131042 -0.951913
v 3.650187 1.647837 -1.147003
v 3.500187 2.150257 -1.147003
v 3.650187 1.638277 -1.244076
v 3.500187 2.131042 -1.342093
v 3.650187 1.609961 -1.337419
v 3.500187 2.074136 -1.529686
v 3.650187 1.563980 -1.423444
v 3.500187 1.981726 -1.702573
v 3.650187 1.502100 -1.498846
v 3.500187 1.857363 -1.854110
v 3.650187 1.426698 -1.560726
v 3.500187 1.705827 -1.978472
v 3.650187 1.340673 -1.606708
v 3.500187 1.532940 -2.070882
v 3.650187 1.247330 -1.635023
v 3.500187 1.345347 -2.127788
vn -0.0000 -0.0980 -0.9952
vn -0.0000 -0.2903 -0.9569
vn -0.0000 -0.4714 -0.8819
vn -0.0000 -0.6344 -0.7730
vn -0.0000 -0.7730 -0.6344
vn -0.0000 -0.8819 -0.4714
vn -0.0000 -0.9569 -0.2903
vn -0.0000 -0.9952 -0.0980
vn -0.0000 -0.9952 0.0980
vn -0.0000 -0.9569 0.2903
vn -0.0000 -0.8819 0.4714
vn -0.0000 -0.7730 0.6344
vn -0.0000 -0.6344 0.7730
vn -0.0000 -0.4714 0.8819
vn -0.0000 -0.2903 0.9569
vn -0.0000 -0.0980 0.9952
vn -0.0000 0.0980 0.9952
vn -0.0000 0.2903 0.9569
vn -0.0000 0.4714 0.8819
vn -0.0000 0.6344 0.7730
vn -0.0000 0.7730 0.6344
vn -0.0000 0.8819 0.4714
vn -0.0000 0.9569 0.2903
vn -0.0000 0.9952 0.0980
vn -0.0000 0.9952 -0.0980
vn -0.0000 0.9569 -0.2903
vn -0.0000 0.8819 -0.4714
vn -0.0000 0.7730 -0.6344
vn -0.0000 0.6344 -0.7730
vn -0.0000 0.4714 -0.8819
vn 1.0000 -0.0000 -0.0000
vn -0.0000 0.2903 -0.9569
vn -0.0000 0.0980 -0.9952
vn -1.0000 -0.0000 -0.0000
vn 0.9578 -0.0282 -0.2860
vn 0.9578 -0.0834 -0.2750
vn 0.9578 -0.1355 -0.2534
vn 0.9578 -0.1823 -0.2221
vn 0.9578 -0.2221 -0.1823
vn 0.9578 -0.2534 -0.1355
vn 0.9578 -0.2750 -0.0834
vn 0.9578 -0.2860 -0.0282
vn 0.9578 -0.2860 0.0282
vn 0.9578 -0.2750 0.0834
vn 0.9578 -0.2534 0.1355
vn 0.9578 -0.2221 0.1823
vn 0.9578 -0.1823 0.2221
vn 0.9578 -0.1355 0.2534
vn 0.9578 -0.0834 0.2750
vn 0.9578 -0.0282 0.2860
vn 0.9578 0.0282 0.2860
vn 0.9578 0.0834 0.2750
vn 0.9578 0.1355 0.2534
vn 0.9578 0.1823 0.2221
vn 0.9578 0.2221 0.1823
vn 0.9578 0.2534 0.1355
vn 0.9578 0.2750 0.0834
vn 0.9578 0.2860 0.0282
vn 0.9578 0.2860 -0.0282
vn 0.9578 0.2750 -0.0834
vn 0.9578 0.2534 -0.1355
vn 0.9578 0.2221 -0.1823
vn 0.9578 0.1823 -0.2221
vn 0.9578 0.1355 -0.2534
vn 0.9578 0.0834 -0.2750
vn 0.9578 0.0282 -0.2860
vt 1.000000 0.500000
vt 1.000000 1.000000
vt 0.968750 1.000000
vt 0.968750 0.500000
vt 0.937500 1.000000
vt 0.937500 0.500000
vt 0.906250 1.000000
vt 0.906250 0.500000
vt 0.875000 1.000000
vt 0.875000 0.500000
vt 0.843750 1.000000
vt 0.843750 0.500000
vt 0.812500 1.000000
vt 0.812500 0.500000
vt 0.781250 1.000000
vt 0.781250 0.500000
vt 0.750000 1.000000
vt 0.750000 0.500000
vt 0.718750 1.000000
vt 0.718750 0.500000
vt 0.687500 1.000000
vt 0.687500 0.500000
vt 0.656250 1.000000
vt 0.656250 0.500000
vt 0.625000 1.000000
vt 0.625000 0.500000
vt 0.593750 1.000000
vt 0.593750 0.500000
vt 0.562500 1.000000
vt 0.562500 0.500000
vt 0.531250 1.000000
vt 0.531250 0.500000
vt 0.500000 1.000000
vt 0.500000 0.500000
vt 0.468750 1.000000
vt 0.468750 0.500000
vt 0.437500 1.000000
vt 0.437500 0.500000
vt 0.406250 1.000000
vt 0.406250 0.500000
vt 0.375000 1.000000
vt 0.375000 0.500000
vt 0.343750 1.000000
vt 0.343750 0.500000
vt 0.312500 1.000000
vt 0.312500 0.500000
vt 0.281250 1.000000
vt 0.281250 0.500000
vt 0.250000 1.000000
vt 0.250000 0.500000
vt 0.218750 1.000000
vt 0.218750 0.500000
vt 0.187500 1.000000
vt 0.187500 0.500000
vt 0.156250 1.000000
vt 0.156250 0.500000
vt 0.125000 1.000000
vt 0.125000 0.500000
vt 0.093750 1.000000
vt 0.093750 0.500000
vt 0.062500 1.000000
vt 0.062500 0.500000
vt 0.296822 0.485388
vt 0.250000 0.490000
vt 0.203178 0.485388
vt 0.158156 0.471731
vt 0.116663 0.449553
vt 0.080294 0.419706
vt 0.050447 0.383337
vt 0.028269 0.341844
vt 0.014612 0.296822
vt 0.010000 0.250000
vt 0.014612 0.203178
vt 0.028269 0.158156
vt 0.050447 0.116663
vt 0.080294 0.080294
vt 0.116663 0.050447
vt 0.158156 0.028269
vt 0.203178 0.014612
vt 0.250000 0.010000
vt 0.296822 0.014612
vt 0.341844 0.028269
vt 0.383337 0.050447
vt 0.419706 0.080294
vt 0.449553 0.116663
vt 0.471731 0.158156
vt 0.485388 0.203178
vt 0.490000 0.250000
vt 0.485388 0.296822
vt 0.471731 0.341844
vt 0.449553 0.383337
vt 0.419706 0.419706
vt 0.383337 0.449553
vt 0.341844 0.471731
vt 0.031250 1.000000
vt 0.031250 0.500000
vt 0.000000 1.000000
vt 0.000000 0.500000
vt 0.750000 0.490000
vt 0.796822 0.485388
vt 0.841844 0.471731
vt 0.883337 0.449553
vt 0.919706 0.419706
vt 0.949553 0.383337
vt 0.971731 0.341844
vt 0.985388 0.296822
vt 0.990000 0.250000
vt 0.985388 0.203178
vt 0.971731 0.158156
vt 0.949553 0.116663
vt 0.919706 0.080294
vt 0.883337 0.050447
vt 0.841844 0.028269
vt 0.796822 0.014612
vt 0.750000 0.010000
vt 0.703178 0.014612
vt 0.658156 0.028269
vt 0.616663 0.050447
vt 0.580294 0.080294
vt 0.550447 0.116663
vt 0.528269 0.158156
vt 0.514612 0.203178
vt 0.510000 0.250000
vt 0.514612 0.296822
vt 0.528269 0.341844
vt 0.550447 0.383337
vt 0.580294 0.419706
vt 0.616663 0.449553
vt 0.658156 0.471731
vt 0.703178 0.485388
vt 0.296822 0.485388
vt 0.250000 0.490000
vt 0.250000 0.369419
vt 0.273297 0.367125
vt 0.295700 0.360329
vt 0.383337 0.449553
vt 0.316346 0.349294
vt 0.419706 0.419706
vt 0.334442 0.334442
vt 0.349294 0.316346
vt 0.471731 0.341844
vt 0.360329 0.295700
vt 0.485388 0.296822
vt 0.367125 0.273298
vt 0.490000 0.250000
vt 0.369419 0.250000
vt 0.367125 0.226703
vt 0.471731 0.158156
vt 0.360329 0.204300
vt 0.449553 0.116663
vt 0.349294 0.183654
vt 0.419706 0.080294
vt 0.334442 0.165558
vt 0.383337 0.050447
vt 0.316346 0.150706
vt 0.341844 0.028269
vt 0.295700 0.139671
vt 0.296822 0.014612
vt 0.273298 0.132875
vt 0.250000 0.130581
vt 0.203178 0.014612
vt 0.226702 0.132875
vt 0.204300 0.139671
vt 0.116663 0.050447
vt 0.183654 0.150706
vt 0.080294 0.080294
vt 0.165558 0.165558
vt 0.150706 0.183654
vt 0.028269 0.158156
vt 0.139671 0.204300
vt 0.132875 0.226702
vt 0.130581 0.250000
vt 0.132875 0.273298
vt 0.028269 0.341844
vt 0.139671 0.295700
vt 0.050447 0.383337
vt 0.150706 0.316346
vt 0.080294 0.419706
vt 0.165558 0.334442
vt 0.116663 0.449553
vt 0.183654 0.349294
vt 0.204300 0.360329
vt 0.203178 0.485388
vt 0.226703 0.367125
vt 1.000000 0.875000
vt 0.968750 0.875000
vt 0.031250 0.875000
vt 0.000000 0.875000
vt 0.937500 0.875000
vt 0.906250 0.875000
vt 0.875000 0.875000
vt 0.843750 0.875000
vt 0.812500 0.875000
vt 0.781250 0.875000
vt 0.750000 0.875000
vt 0.718750 0.875000
vt 0.687500 0.875000
vt 0.656250 0.875000
vt 0.625000 0.875000
vt 0.593750 0.875000
vt 0.562500 0.875000
vt 0.531250 0.875000
vt 0.500000 0.875000
vt 0.468750 0.875000
vt 0.437500 0.875000
vt 0.406250 0.875000
vt 0.375000 0.875000
vt 0.343750 0.875000
vt 0.312500 0.875000
vt 0.281250 0.875000
vt 0.250000 0.875000
vt 0.218750 0.875000
vt 0.187500 0.875000
vt 0.156250 0.875000
vt 0.125000 0.875000
vt 0.093750 0.875000
vt 0.062500 0.875000
s 0
f 1/1/1 2/2/1 4/3/1 3/4/1
f 3/4/2 4/3/2 6/5/2 5/6/2
f 5/6/3 6/5/3 8/7/3 7/8/3
f 7/8/4 8/7/4 10/9/4 9/10/4
f 9/10/5 10/9/5 12/11/5 11/12/5
f 11/12/6 12/11/6 14/13/6 13/14/6
f 13/14/7 14/13/7 16/15/7 15/16/7
f 15/16/8 16/15/8 18/17/8 17/18/8
f 17/18/9 18/17/9 20/19/9 19/20/9
f 19/20/10 20/19/10 22/21/10 21/22/10
f 21/22/11 22/21/11 24/23/11 23/24/11
f 23/24/12 24/23/12 26/25/12 25/26/12
f 25/26/13 26/25/13 28/27/13 27/28/13
f 27/28/14 28/27/14 30/29/14 29/30/14
f 29/30/15 30/29/15 32/31/15 31/32/15
f 31/32/16 32/31/16 34/33/16 33/34/16
f 33/34/17 34/33/17 36/35/17 35/36/17
f 35/36/18 36/35/18 38/37/18 37/38/18
f 37/38/19 38/37/19 40/39/19 39/40/19
f 39/40/20 40/39/20 42/41/20 41/42/20
f 41/42/21 42/41/21 44/43/21 43/44/21
f 43/44/22 44/43/22 46/45/22 45/46/22
f 45/46/23 46/45/23 48/47/23 47/48/23
f 47/48/24 48/47/24 50/49/24 49/50/24
f 49/50/25 50/49/25 52/51/25 51/52/25
f 51/52/26 52/51/26 54/53/26 53/54/26
f 53/54/27 54/53/27 56/55/27 55/56/27
f 55/56/28 56/55/28 58/57/28 57/58/28
f 57/58/29 58/57/29 60/59/29 59/60/29
f 59/60/30 60/59/30 62/61/30 61/62/30
f 4/63/31 2/64/31 64/65/31 62/66/31 60/67/31 58/68/31 56/69/31 54/70/31 52/71/31 50/72/31 48/73/31 46/74/31 44/75/31 42/76/31 40/77/31 38/78/31 36/79/31 34/80/31 32/81/31 30/82/31 28/83/31 26/84/31 24/85/31 22/86/31 20/87/31 18/88/31 16/89/31 14/90/31 12/91/31 10/92/31 8/93/31 6/94/31
f 61/62/32 62/61/32 64/95/32 63/96/32
f 63/96/33 64/95/33 2/97/33 1/98/33
f 1/99/34 3/100/34 5/101/34 7/102/34 9/103/34 11/104/34 13/105/34 15/106/34 17/107/34 19/108/34 21/109/34 23/110/34 25/111/34 27/112/34 29/113/34 31/114/34 33/115/34 35/116/34 37/117/34 39/118/34 41/119/34 43/120/34 45/121/34 47/122/34 49/123/34 51/124/34 53/125/34 55/126/34 57/127/34 59/128/34 61/129/34 63/130/34
f 65/99/34 66/100/34 67/101/34 68/102/34 69/103/34 70/104/34 71/105/34 72/106/34 73/107/34 74/108/34 75/109/34 76/110/34 77/111/34 78/112/34 79/113/34 80/114/34 81/115/34 82/116/34 83/117/34 84/118/34 85/119/34 86/120/34 87/121/34 88/122/34 89/123/34 90/124/34 91/125/34 92/126/34 93/127/34 94/128/34 95/129/34 96/130/34
f 100/131/35 98/132/35 97/133/35 99/134/35
f 102/94/36 100/131/36 99/134/36 101/135/36
f 104/136/37 102/94/37 101/135/37 103/137/37
f 106/138/38 104/136/38 103/137/38 105/139/38
f 108/91/39 106/138/39 105/139/39 107/140/39
f 110/141/40 108/91/40 107/140/40 109/142/40
f 112/143/41 110/141/41 109/142/41 111/144/41
f 114/145/42 112/143/42 111/144/42 113/146/42
f 116/87/43 114/145/43 113/146/43 115/147/43
f 118/148/44 116/87/44 115/147/44 117/149/44
f 120/150/45 118/148/45 117/149/45 119/151/45
f 122/152/46 120/150/46 119/151/46 121/153/46
f 124/154/47 122/152/47 121/153/47 123/155/47
f 126/156/48 124/154/48 123/155/48 125/157/48
f 128/158/49 126/156/49 125/157/49 127/159/49
f 130/80/50 128/158/50 127/159/50 129/160/50
f 132/161/51 130/80/51 129/160/51 131/162/51
f 134/78/52 132/161/52 131/162/52 133/163/52
f 136/164/53 134/78/53 133/163/53 135/165/53
f 138/166/54 136/164/54 135/165/54 137/167/54
f 140/75/55 138/166/55 137/167/55 139/168/55
f 142/169/56 140/75/56 139/168/56 141/170/56
f 144/73/57 142/169/57 141/170/57 143/171/57
f 146/72/58 144/73/58 143/171/58 145/172/58
f 148/71/59 146/72/59 145/172/59 147/173/59
f 150/174/60 148/71/60 147/173/60 149/175/60
f 152/176/61 150/174/61 149/175/61 151/177/61
f 154/178/62 152/176/62 151/177/62 153/179/62
f 156/180/63 154/178/63 153/179/63 155/181/63
f 158/66/64 156/180/64 155/181/64 157/182/64
f 160/183/65 158/66/65 157/182/65 159/184/65
f 98/132/66 160/183/66 159/184/66 97/133/66
f 99/134/31 97/133/31 159/184/31 157/182/31 155/181/31 153/179/31 151/177/31 149/175/31 147/173/31 145/172/31 143/171/31 141/170/31 139/168/31 137/167/31 135/165/31 133/163/31 131/162/31 129/160/31 127/159/31 125/157/31 123/155/31 121/153/31 119/151/31 117/149/31 115/147/31 113/146/31 111/144/31 109/142/31 107/140/31 105/139/31 103/137/31 101/135/31
f 65/1/1 98/185/1 100/186/1 66/4/1
f 96/96/33 160/187/33 98/188/33 65/98/33
f 66/4/2 100/186/2 102/189/2 67/6/2
f 67/6/3 102/189/3 104/190/3 68/8/3
f 68/8/4 104/190/4 106/191/4 69/10/4
f 69/10/5 106/191/5 108/192/5 70/12/5
f 70/12/6 108/192/6 110/193/6 71/14/6
f 71/14/7 110/193/7 112/194/7 72/16/7
f 72/16/8 112/194/8 114/195/8 73/18/8
f 73/18/9 114/195/9 116/196/9 74/20/9
f 74/20/10 116/196/10 118/197/10 75/22/10
f 75/22/11 118/197/11 120/198/11 76/24/11
f 76/24/12 120/198/12 122/199/12 77/26/12
f 77/26/13 122/199/13 124/200/13 78/28/13
f 78/28/14 124/200/14 126/201/14 79/30/14
f 79/30/15 126/201/15 128/202/15 80/32/15
f 80/32/16 128/202/16 130/203/16 81/34/16
f 81/34/17 130/203/17 132/204/17 82/36/17
f 82/36/18 132/204/18 134/205/18 83/38/18
f 83/38/19 134/205/19 136/206/19 84/40/19
f 84/40/20 136/206/20 138/207/20 85/42/20
f 85/42/21 138/207/21 140/208/21 86/44/21
f 86/44/22 140/208/22 142/209/22 87/46/22
f 87/46/23 142/209/23 144/210/23 88/48/23
f 88/48/24 144/210/24 146/211/24 89/50/24
f 89/50/25 146/211/25 148/212/25 90/52/25
f 90/52/26 148/212/26 150/213/26 91/54/26
f 91/54/27 150/213/27 152/214/27 92/56/27
f 92/56/28 152/214/28 154/215/28 93/58/28
f 93/58/29 154/215/29 156/216/29 94/60/29
f 94/60/30 156/216/30 158/217/30 95/62/30
f 95/62/32 158/217/32 160/187/32 96/96/32
o Cube.050
v 3.003406 -0.106308 0.929745
v 3.003406 2.323691 0.929745
v 3.003406 -0.106308 -2.310255
v 3.003406 2.323691 -2.310255
v 3.273406 -0.106308 0.929745
v 3.273406 2.323691 0.929745
v 3.273406 -0.106308 -2.310255
v 3.273406 2.323691 -2.310255
v 2.865000 -4.050000 2.700000
v 2.865000 4.050000 2.700000
v 2.865000 -4.050000 -2.700000
v 2.865000 4.050000 -2.700000
v 3.135000 -4.050000 2.700000
v 3.135000 4.050000 2.700000
v 3.135000 -4.050000 -2.700000
v 3.135000 4.050000 -2.700000
vn -1.0000 -0.0000 -0.0000
vn -0.0000 -0.0000 -1.0000
vn 1.0000 -0.0000 -0.0000
vn -0.0000 -0.0000 1.0000
vn -0.0000 -1.0000 -0.0000
vn -0.0000 1.0000 -0.0000
vt 0.375000 0.000000
vt 0.625000 0.000000
vt 0.625000 0.250000
vt 0.375000 0.250000
vt 0.625000 0.500000
vt 0.375000 0.500000
vt 0.625000 0.750000
vt 0.375000 0.750000
vt 0.625000 1.000000
vt 0.375000 1.000000
vt 0.125000 0.500000
vt 0.125000 0.750000
vt 0.875000 0.500000
vt 0.875000 0.750000
s 0
f 161/218/67 162/219/67 164/220/67 163/221/67
f 163/221/68 164/220/68 168/222/68 167/223/68
f 167/223/69 168/222/69 166/224/69 165/225/69
f 165/225/70 166/224/70 162/226/70 161/227/70
f 163/228/71 167/223/71 165/225/71 161/229/71
f 168/222/72 164/230/72 162/231/72 166/224/72
f 169/218/67 170/219/67 172/220/67 171/221/67
f 171/221/68 172/220/68 176/222/68 175/223/68
f 175/223/69 176/222/69 174/224/69 173/225/69
f 173/225/70 174/224/70 170/226/70 169/227/70
f 171/228/71 175/223/71 173/225/71 169/229/71
f 176/222/72 172/230/72 170/231/72 174/224/72
o Cube.049
v -3.000000 -4.500000 3.000000
v -3.000000 4.500000 3.000000
v -3.000000 -4.500000 -3.000000
v -3.000000 4.500000 -3.000000
v 3.000000 -4.500000 3.000000
v 3.000000 4.500000 3.000000
v 3.000000 -4.500000 -3.000000
v 3.000000 4.500000 -3.000000
vn -1.0000 -0.0000 -0.0000
vn -0.0000 -0.0000 -1.0000
vn 1.0000 -0.0000 -0.0000
vn -0.0000 -0.0000 1.0000
vn -0.0000 -1.0000 -0.0000
vn -0.0000 1.0000 -0.0000
vt 0.375000 0.000000
vt 0.625000 0.000000
vt 0.625000 0.250000
vt 0.375000 0.250000
vt 0.625000 0.500000
vt 0.375000 0.500000
vt 0.625000 0.750000
vt 0.375000 0.750000
vt 0.625000 1.000000
vt 0.375000 1.000000
vt 0.125000 0.500000
vt 0.125000 0.750000
vt 0.875000 0.500000
vt 0.875000 0.750000
s 0
f 177/232/73 178/233/73 180/234/73 179/235/73
f 179/235/74 180/234/74 184/236/74 183/237/74
f 183/237/75 184/236/75 182/238/75 181/239/75
f 181/239/76 182/238/76 178/240/76 177/241/76
f 179/242/77 183/237/77 181/239/77 177/243/77
f 184/236/78 180/244/78 178/245/78 182/238/78
